Coordinates

Units are S.I. units (second, meters, Newtons, ...)
If the header above contains a line with 'inDegrees', this indicates whether rotational values are in degrees (yes) or radians (no).

inDegrees=no
nColumns=21
nRows=25
DataType=double
version=3
OpenSimVersion=4.6-2026-03-31-d6972f9e6
endheader
time	/jointset/ground_pelvis/pelvis_tilt/value	/jointset/ground_pelvis/pelvis_list/value	/jointset/ground_pelvis/pelvis_rotation/value	/jointset/ground_pelvis/pelvis_tx/value	/jointset/ground_pelvis/pelvis_ty/value	/jointset/ground_pelvis/pelvis_tz/value	/jointset/hip_r/hip_flexion_r/value	/jointset/hip_r/hip_adduction_r/value	/jointset/hip_r/hip_rotation_r/value	/jointset/walker_knee_r/knee_angle_r/value	/jointset/patellofemoral_r/knee_angle_r_beta/value	/jointset/ankle_r/ankle_angle_r/value	/jointset/subtalar_r/subtalar_angle_r/value	/jointset/hip_l/hip_flexion_l/value	/jointset/hip_l/hip_adduction_l/value	/jointset/hip_l/hip_rotation_l/value	/jointset/walker_knee_l/knee_angle_l/value	/jointset/patellofemoral_l/knee_angle_l_beta/value	/jointset/ankle_l/ankle_angle_l/value	/jointset/subtalar_l/subtalar_angle_l/value
144.996	0.05385823582148484	-0.09489818801940311	1.497723874955824	0.8088539187881388	0.9508121598459588	-0.6543882096727739	0.4648695635966421	-0.01437474204750079	-0.08524492165477043	0.9717780242310476	0.9717780250025747	-0.2846359766913691	-0.6394348113070568	-0.1162062081876568	-0.01286445027126833	-0.02083444646644551	0.385937163023462	0.385937162737791	-0.1983301853581031	-0.1814613553247686
145	0.05945386681243268	-0.09993438764987551	1.491517201459699	0.8091338883645406	0.953591879780701	-0.6551627626822042	0.4709106274976678	-0.001352224664405121	-0.08804317200574888	0.9335827548264964	0.9335827555280337	-0.2892137425073925	-0.6367175873710282	-0.128996327448515	-0.01849487762452368	-0.03167493887382635	0.3656773902069309	0.3656773899743407	-0.2312169487056043	-0.1757177758313823
145.004	0.0648808252605593	-0.105114080464726	1.48543404167353	0.8094177741278388	0.9562676716941428	-0.6559876742070258	0.4763391604083317	0.01160942409384869	-0.0909647435532417	0.8945361048284953	0.8945361054313921	-0.2944660430435574	-0.632691666182457	-0.1412531752389291	-0.02373335932352035	-0.0422649655652337	0.3460427427679695	0.3460427425949115	-0.2638706309878914	-0.1704276318178256
145.008	0.07011166805683955	-0.1104212456001628	1.479528952064895	0.8097039695264944	0.9588234409137202	-0.6568550816197232	0.481209858524857	0.02445842590267959	-0.09400681138057129	0.8548423403092633	0.8548423407865857	-0.3003249553689503	-0.627217746484355	-0.1529227373706495	-0.02857724169908658	-0.05245779029424167	0.3272105819470613	0.3272105818365554	-0.2959986756314772	-0.1655711975189372
145.012	0.07511554788783183	-0.1158365382919314	1.473849097075677	0.8099910522994928	0.9612444215135699	-0.6577565909350971	0.4855816555387582	0.03713875901747543	-0.09715918111957228	0.8147184384545493	0.8147184387837302	-0.3067071651488401	-0.6201791049422275	-0.1639536661441658	-0.03302361094189911	-0.06210727554523969	0.3093593570693998	0.3093593570210249	-0.3273154951694781	-0.1611290509133393
145.016	0.07985968092923171	-0.1213371541100852	1.46843393008383	0.8102777191855918	0.9635174459824385	-0.6586834307227365	0.4895156040144101	0.04959166195605228	-0.100404876453096	0.7743905371642794	0.774390537329818	-0.3135163338083868	-0.6114870842067704	-0.1742984670900598	-0.03706957783700639	-0.07106966824277336	0.2926660101178704	0.2926660101278248	-0.3575493789621723	-0.1570842778604932
145.02	0.08431102840984711	-0.1268967932890073	1.463315272119668	0.8105627101376986	0.965631179028165	-0.659626622850276	0.4930726144407409	0.06175730543073267	-0.1037210642102302	0.7340899062017671	0.7340899061973254	-0.3206464361213288	-0.6010861054555061	-0.1839146535711838	-0.04071276310544882	-0.07920557770866594	0.2773031979724766	0.2773031980337001	-0.3864491528303263	-0.1534243374250041
145.024	0.08843806780908724	-0.1324857236299789	1.458517719991646	0.81084473024221	0.9675763059298106	-0.6605771656394663	0.4963111613755691	0.07357653127539265	-0.1070801867579194	0.6940486274362715	0.6940486272655984	-0.3279859273574272	-0.5889579364136162	-0.1927658564938897	-0.04395190591613025	-0.08638218684015399	0.2634363613521711	0.2634363614545584	-0.4137903884510886	-0.1501425046103739
145.028	0.09221253412062277	-0.138070954613575	1.454059299829389	0.8111223776402594	0.9693456656534389	-0.6615262231227667	0.499285090795429	0.08499256902655623	-0.1104511588567556	0.6544951998543589	0.6544951995307962	-0.3354225074818389	-0.5751249358403147	-0.2008228401210765	-0.0467875263383033	-0.09247573362929427	0.2512207231888927	0.2512207233196787	-0.4393809362259596	-0.1472388119479889
145.032	0.09561103335268667	-0.1436165118955406	1.449952271923211	0.8113940848341029	0.9709343225417316	-0.6624653141195158	0.5020416315036473	0.09595266159386456	-0.1138004970674921	0.6156502879532817	0.6156502874980498	-0.3428481917759083	-0.5596520395937814	-0.2080643961778676	-0.04922258676874055	-0.09737427196921913	0.2407983212085813	0.240798321352989	-0.4630655701482114	-0.1447204473707863
145.036	0.09861644837503161	-0.1490837679730007	1.446203993987644	0.8116580791340641	0.9723395756329782	-0.6633864958014091	0.504619664277831	0.1064095422393452	-0.1170932759725911	0.5777228197969472	0.5777228192367322	-0.3501643769494138	-0.5426473475033943	-0.2144781327115322	-0.05126310318353363	-0.1009806619284307	0.2322951677971997	0.232295167939387	-0.4847295873752622	-0.142601614351511
145.04	0.1012190478899286	-0.1544318046497223	1.442817760689685	0.8119123667581258	0.9735609058422745	-0.664282535915683	0.5070483192030296	0.1163226910733251	-0.1202938299033217	0.5409066346945373	0.5409066340590045	-0.3572865901986081	-0.5242612613116432	-0.220061152406968	-0.05291864507141341	-0.1032156776229907	0.2258186230734673	0.2258186231977636	-0.5043012302939489	-0.1409028799022201
145.044	0.1034171938997064	-0.1596178270018786	1.439793554395679	0.8121547441578537	0.9745998602641005	-0.6651470659882666	0.5093460146065522	0.1256592804648832	-0.1233661445819954	0.505377865900361	0.5053778652201203	-0.3641486057064435	-0.5046841851706709	-0.2248205558084146	-0.05420265117069078	-0.1040210810036672	0.2214550788190658	0.2214550789114655	-0.5217527895485199	-0.13965003416477
145.048	0.1052175616022601	-0.1645976399403635	1.437128661524615	0.812382837801801	0.9754598761689618	-0.6659747073492122	0.5115200169047952	0.134394729010856	-0.1262739194069407	0.4712931933503304	0.4712931926556215	-0.3707056209528445	-0.4841428705477046	-0.2287737106836679	-0.05513249967130836	-0.1033624877577725	0.219268052567486	0.2192680526173122	-0.5371002745640819	-0.1388725088178094
145.052	0.1066348246975032	-0.1693261782763016	1.434818119957005	0.8125941699946331	0.9761460513457709	-0.6667611634185356	0.5135665452769189	0.1425128159480492	-0.1289803159932963	0.4387890389882971	0.4387890383083051	-0.3769362269471488	-0.4628955853676603	-0.2319482576383365	-0.05572929474036091	-0.1012318468934964	0.2192967797802993	0.2192967797818248	-0.5504015956696711	-0.1386014404796784
145.056	0.1076908058116229	-0.1737580969120844	1.432854974045359	0.8127862455009678	0.9766648683604453	-0.6675032741013396	0.5154714314122616	0.1500053513824357	-0.1314474418715737	0.4079817204722787	0.4079817198347357	-0.3828429704545708	-0.4412263554062577	-0.2343818131052159	-0.05601736707560018	-0.09764937402505758	0.2215553852395955	0.2215553851932631	-0.5617532570102525	-0.1388674911474872
145.06	0.1084132061550379	-0.1778484090884139	1.431230361101536	0.8129566513327258	0.9770238844694902	-0.6681990326687901	0.5172112700997229	0.1568714915919113	-0.1336356993594206	0.3789684859737691	0.3789684854044839	-0.3884513441749122	-0.4194384703805561	-0.2361213737496677	-0.05602359305790001	-0.09266480625976233	0.2260326941840784	0.2260326940969441	-0.5712856691461793	-0.1396985962976639
145.064	0.1088342105557609	-0.1815530935026589	1.429933533149044	0.8131031586987185	0.9772314070824166	-0.6688475727036362	0.5187548451751536	0.1631169307695605	-0.135503256770742	0.3518292261311053	0.3518292256531775	-0.3938070447644875	-0.397847279448022	-0.23722254267733	-0.05577680847515286	-0.08635787070805387	0.2326926967862186	0.2326926966714332	-0.5791573583837701	-0.1411179167999631
145.068	0.1089893108330826	-0.1848295849841865	1.428951940021517	0.8132238160853079	0.9772961756031835	-0.6694491350231028	0.5200645804406022	0.1687532414765271	-0.1370059107767595	0.3266286030749443	0.3266286027076204	-0.3989714285932187	-0.3767722764226139	-0.2377487195564943	-0.05530762841028098	-0.07883788649508004	0.2414756493363071	0.2414756492116651	-0.5855484434303018	-0.1431422881174856
145.072	0.1089164533188294	-0.1876371550781822	1.428271405625323	0.8133170297077612	0.9772270600898909	-0.6700050157824036	0.5210979330419063	0.1737974613337606	-0.1380974009205941	0.3034184044544941	0.3034184042118716	-0.404015360201203	-0.3565287781268192	-0.2377702452493158	-0.05464873743921415	-0.07024246439532186	0.2522998112780332	0.2522998111637526	-0.5906536897981046	-0.1457812904506218
145.076	0.1086553403978733	-0.1899372671785297	1.427876326686728	0.8133816347832008	0.9770327771120123	-0.6705174874445737	0.521808812484352	0.1782718086806675	-0.1387300334145224	0.2822400123608071	0.2822400122506754	-0.4090119037973877	-0.3374198009782172	-0.2373633517394686	-0.05383542747465883	-0.06073531406286427	0.265063827428555	0.2650638273446378	-0.5946753517837183	-0.1490368659860928
145.08	0.1082467268084486	-0.1916939814459205	1.427749845944766	0.8134169591480556	0.9767216226711875	-0.6709896871838577	0.5221490923530239	0.1822034018980383	-0.1388555261510616	0.263126858497826	0.2631268585207293	-0.4140283325871036	-0.3197286280119665	-0.2366087996231911	-0.05290616448028321	-0.05050319062396581	0.2796497214192467	0.2796497213829833	-0.59781600646621	-0.1529033951914032
145.084	0.1077317433342878	-0.1928744425106574	1.427874039655751	0.8134228743400032	0.9763012258587064	-0.6714254771051943	0.5220701817928106	0.1856239912881376	-0.1384261617410841	0.2461066711980823	0.2461066713464563	-0.4191178345112699	-0.3037122155757297	-0.2355901952088758	-0.05190315619374888	-0.03975203017517723	0.2959264022360305	0.295926402260175	-0.6002716472840723	-0.1573682471742684
145.088	0.1071513439674234	-0.1934494498586338	1.428230172737627	0.8133998280392092	0.9757783287629629	-0.6718292840124904	0.5215245793908694	0.1885697603062026	-0.1373963477515976	0.2312033189643499	0.2312033192216659	-0.4243113010518752	-0.2895954507648032	-0.2343920457403636	-0.05087295295859355	-0.02870237438845456	0.3137535425591427	0.3137535426509378	-0.6022253453530524	-0.1624128324675018
145.092	0.1065458859514667	-0.1933940757585556	1.428799017374626	0.8133488555861803	0.975158598792372	-0.6722059230223129	0.5204673336280917	0.191081189313205	-0.1357245452432989	0.2184381184602805	0.2184381188004738	-0.4296096857585377	-0.2775663569272311	-0.2330976424551224	-0.04986702052591205	-0.01758425047828893	0.3329856652577477	0.3329856654186342	-0.6038417769823217	-0.1680140903107217
